<svg xmlns="http://www.w3.org/2000/svg" viewBox="0 0 107.68 68.17"><defs><style>.cls-1{fill:#011627;}</style></defs><g id="Layer_2" data-name="Layer 2"><g id="Layer_1-2" data-name="Layer 1"><path class="cls-1" d="M55.6,0V3.76H72V14.6c-2.44,2-5.35,4-9.22,3.53-3.68-.44-4.72-2-7.56-3.17-3.55-1.48-9.67-4.46-19.52,1.3V3.76H52.08V0H31.21V36.22H52.08V32.46H35.69V21.61c5.21-3.11,9.22-3.75,12-3.39,6.65.87,9.39,5.87,15.63,5.76A14.62,14.62,0,0,0,72,20.51v12H55.6v3.76H76.47V0Z"/><path class="cls-1" d="M23.39,65.16a1.7,1.7,0,0,0-.59-1.32,6.41,6.41,0,0,0-1.76-1l-1.58-.65a6.87,6.87,0,0,1-2.31-1.43,2.86,2.86,0,0,1-.83-2.11,2.92,2.92,0,0,1,1.23-2.53,5.22,5.22,0,0,1,3.09-.87,9.43,9.43,0,0,1,2.47.27,3.3,3.3,0,0,1,1.46.77,1.93,1.93,0,0,1,.58,1.13A14,14,0,0,1,25.23,59H24.7a3.21,3.21,0,0,0-1.08-2,3.73,3.73,0,0,0-2.45-.74,3.14,3.14,0,0,0-2,.53,1.6,1.6,0,0,0-.66,1.31,1.72,1.72,0,0,0,.55,1.24,4.4,4.4,0,0,0,1.54,1l1.57.66a8.28,8.28,0,0,1,2.55,1.49,3.13,3.13,0,0,1-.45,4.7A5.7,5.7,0,0,1,21,68a10.05,10.05,0,0,1-2.57-.27A3.27,3.27,0,0,1,17,67a1.83,1.83,0,0,1-.58-1.12,14.1,14.1,0,0,1-.08-1.63h.52a3.19,3.19,0,0,0,1.1,2,4,4,0,0,0,2.57.73,3.64,3.64,0,0,0,2.19-.52A1.59,1.59,0,0,0,23.39,65.16Zm11,1.68a3.59,3.59,0,0,1-1.13.15,1.62,1.62,0,0,1-1.37-.58,2.85,2.85,0,0,1-.46-1.77V56.52H34.6V55.47H31.46V51.54H30.41L29.1,53.11v2.36H27.27v1.05H29.1v8.12A3.4,3.4,0,0,0,30,67.23a3.22,3.22,0,0,0,2.27.81,5,5,0,0,0,2.12-.36A8,8,0,0,0,35.52,67l-.26-.52A6.45,6.45,0,0,1,34.42,66.84ZM11.68,50.75H0v.53H.52c.79,0,1.29.24,1.51.72a4.6,4.6,0,0,1,.33,1.9V68h9a2.17,2.17,0,0,0,1.27-.35l.18-.16a1.89,1.89,0,0,0,.54-1.38v-2h-.53s0,1.75-.74,2.19A5.21,5.21,0,0,1,9.3,67H4.72V59.66h7.07v-1H4.72V51.8H9.59a3.64,3.64,0,0,1,2.42.72,2.84,2.84,0,0,1,.85,2.29h.53V52.46A1.72,1.72,0,0,0,11.68,50.75Z"/><path class="cls-1" d="M53.57,52.33v2.35H53a2.83,2.83,0,0,0-.85-2.29,3.64,3.64,0,0,0-2.42-.72H44.9v6.81H52v1.05H44.9v7.33h4.58a5.21,5.21,0,0,0,2.82-.65C53,65.77,53,64,53,64h.53v2A1.89,1.89,0,0,1,53,67.4l-.18.16a2.17,2.17,0,0,1-1.27.35h-9V53.77a4.6,4.6,0,0,0-.33-1.9c-.22-.48-.72-.72-1.51-.72h-.52v-.53H51.86A1.72,1.72,0,0,1,53.57,52.33Zm12.36,3.94a3.72,3.72,0,0,0-1.43-.72,6.39,6.39,0,0,0-1.63-.21,4.81,4.81,0,0,0-2,.4,4.88,4.88,0,0,0-1.36.91V53.77a7.23,7.23,0,0,0-.21-2,1.39,1.39,0,0,0-.72-.91,3.45,3.45,0,0,0-1.43-.24H54.74v.53h.53c.78,0,1.29.24,1.51.72a4.78,4.78,0,0,1,.32,1.9V67.91h2.36v-10a5.56,5.56,0,0,1,1.17-1,2.66,2.66,0,0,1,1.45-.42,3,3,0,0,1,1.39.34A2.61,2.61,0,0,1,64.54,58,4.39,4.39,0,0,1,65,60.05v7.86h2.36V60.05a6.29,6.29,0,0,0-.38-2.34A3.48,3.48,0,0,0,65.93,56.27Zm6.85-.43a3.45,3.45,0,0,0-1.43-.24H69v.52h.52c.78,0,1.29.24,1.51.72a4.82,4.82,0,0,1,.32,1.9v9.17h2.36V58.74a7.2,7.2,0,0,0-.21-2A1.37,1.37,0,0,0,72.78,55.84Zm.77-3.24a1.34,1.34,0,1,0-1.33,1.34A1.34,1.34,0,0,0,73.55,52.6ZM83.22,67a3.57,3.57,0,0,1-1.13.16,1.63,1.63,0,0,1-1.37-.59,2.85,2.85,0,0,1-.46-1.77V56.65H83.4v-1H80.26V51.67H79.21L77.9,53.24V55.6H76.07v1H77.9v8.12a3.35,3.35,0,0,0,.88,2.59,3.2,3.2,0,0,0,2.26.81,5,5,0,0,0,2.13-.36,8.12,8.12,0,0,0,1.15-.68l-.26-.53A6.45,6.45,0,0,1,83.22,67Zm23.59-4.38a8.41,8.41,0,0,0-2.54-1.49l-1.57-.65a4.6,4.6,0,0,1-1.55-1,1.76,1.76,0,0,1-.55-1.24,1.63,1.63,0,0,1,.67-1.31,3.12,3.12,0,0,1,2-.52,3.69,3.69,0,0,1,2.45.73,3.18,3.18,0,0,1,1.09,2h.52a12.15,12.15,0,0,0-.08-1.63,1.87,1.87,0,0,0-.57-1.12,3.29,3.29,0,0,0-1.47-.78,9.4,9.4,0,0,0-2.46-.27,5.22,5.22,0,0,0-3.09.87,2.92,2.92,0,0,0-1.23,2.53,2.85,2.85,0,0,0,.82,2.11,6.83,6.83,0,0,0,2.32,1.43l1.57.65a6.34,6.34,0,0,1,1.77,1,1.73,1.73,0,0,1,.59,1.32,1.58,1.58,0,0,1-.69,1.31,3.68,3.68,0,0,1-2.19.53,3.94,3.94,0,0,1-2.57-.74,3.19,3.19,0,0,1-1.1-2h-.52A14.44,14.44,0,0,0,98.45,66,2,2,0,0,0,99,67.13a3.42,3.42,0,0,0,1.49.77,10.11,10.11,0,0,0,2.57.27,5.83,5.83,0,0,0,3.28-.87,3.13,3.13,0,0,0,.44-4.71Zm-12.6,3a4.32,4.32,0,0,1-.73.68,3.88,3.88,0,0,1-.88.51,2.53,2.53,0,0,1-1,.19,3.07,3.07,0,0,1-1.37-.33,2.63,2.63,0,0,1-1.08-1.11,4.32,4.32,0,0,1-.41-2.07V58.72a7,7,0,0,0-.21-2,1.39,1.39,0,0,0-.72-.92,3.59,3.59,0,0,0-1.42-.23H84.32v.52h.26q1.17,0,1.5.72a4.68,4.68,0,0,1,.32,1.88v4.69a5.4,5.4,0,0,0,.65,2.89,3.43,3.43,0,0,0,1.67,1.41,5.85,5.85,0,0,0,2.11.39,4.71,4.71,0,0,0,2-.41,4.8,4.8,0,0,0,1.35-.9h.13l.91,1h1.31V55.6H94.21Z"/></g></g></svg>