<svg xmlns="http://www.w3.org/2000/svg" viewBox="0 0 107.68 17.55"><defs><style>.cls-1{fill:#011627;}</style></defs><g id="Layer_2" data-name="Layer 2"><g id="Layer_1-2" data-name="Layer 1"><path class="cls-1" d="M23.39,14.54a1.67,1.67,0,0,0-.59-1.32,6.17,6.17,0,0,0-1.76-1l-1.58-.65a7,7,0,0,1-2.31-1.43A2.86,2.86,0,0,1,16.32,8a2.92,2.92,0,0,1,1.23-2.53,5.22,5.22,0,0,1,3.09-.88,9.39,9.39,0,0,1,2.47.28,3.3,3.3,0,0,1,1.46.77,1.91,1.91,0,0,1,.58,1.13,14,14,0,0,1,.08,1.62H24.7a3.19,3.19,0,0,0-1.08-2,3.73,3.73,0,0,0-2.45-.74,3.14,3.14,0,0,0-2,.53,1.6,1.6,0,0,0-.66,1.31,1.74,1.74,0,0,0,.55,1.24,4.54,4.54,0,0,0,1.54,1l1.57.66a8.28,8.28,0,0,1,2.55,1.49A2.86,2.86,0,0,1,25.62,14a2.86,2.86,0,0,1-1.31,2.53,5.7,5.7,0,0,1-3.27.88,9.57,9.57,0,0,1-2.57-.28A3.26,3.26,0,0,1,17,16.37a1.83,1.83,0,0,1-.58-1.12,14.1,14.1,0,0,1-.08-1.63h.52a3.19,3.19,0,0,0,1.1,2,4,4,0,0,0,2.57.73,3.64,3.64,0,0,0,2.19-.52A1.59,1.59,0,0,0,23.39,14.54Zm11,1.68a3.59,3.59,0,0,1-1.13.15,1.6,1.6,0,0,1-1.37-.59A2.82,2.82,0,0,1,31.46,14V5.89H34.6v-1H31.46V.92H30.41L29.1,2.49V4.85H27.27v1H29.1V14a3.41,3.41,0,0,0,.88,2.6,3.22,3.22,0,0,0,2.27.81,4.8,4.8,0,0,0,2.12-.37,7.27,7.27,0,0,0,1.15-.68l-.26-.52A6.45,6.45,0,0,1,34.42,16.22ZM11.68.13H0V.65H.52A1.48,1.48,0,0,1,2,1.38a4.58,4.58,0,0,1,.33,1.89V17.42h9a2.17,2.17,0,0,0,1.27-.35l.18-.16a1.89,1.89,0,0,0,.54-1.38v-2l-.53,0s0,1.76-.74,2.2a5.3,5.3,0,0,1-2.82.65H4.72V9h7.07V8H4.72V1.18H9.59A3.64,3.64,0,0,1,12,1.9a2.83,2.83,0,0,1,.85,2.29h.53V1.83A1.71,1.71,0,0,0,11.68.13Z"/><path class="cls-1" d="M53.57,1.7V4.06H53a2.83,2.83,0,0,0-.85-2.29,3.64,3.64,0,0,0-2.42-.72H44.9V7.86H52v1H44.9v7.33h4.58a5.3,5.3,0,0,0,2.82-.65c.69-.44.74-2.2.74-2.2h.53v2A1.91,1.91,0,0,1,53,16.78l-.18.16a2.17,2.17,0,0,1-1.27.35h-9V3.14a4.63,4.63,0,0,0-.33-1.9C42,.76,41.49.52,40.7.52h-.52V0H51.86A1.71,1.71,0,0,1,53.57,1.7Zm12.36,4a3.6,3.6,0,0,0-1.43-.73,6.86,6.86,0,0,0-1.63-.2,4.81,4.81,0,0,0-2,.4,4.86,4.86,0,0,0-1.36.9V3.14a7.2,7.2,0,0,0-.21-2,1.37,1.37,0,0,0-.72-.91A3.45,3.45,0,0,0,57.1,0H54.74V.52h.53c.78,0,1.29.24,1.51.72a4.82,4.82,0,0,1,.32,1.9V17.29h2.36v-10a5.6,5.6,0,0,1,1.17-1,2.66,2.66,0,0,1,1.45-.42,3.07,3.07,0,0,1,1.39.34,2.64,2.64,0,0,1,1.07,1.12A4.36,4.36,0,0,1,65,9.43v7.86h2.36V9.43a6.29,6.29,0,0,0-.38-2.34A3.48,3.48,0,0,0,65.93,5.65Zm6.85-.44A3.64,3.64,0,0,0,71.35,5H69V5.5h.52c.78,0,1.29.24,1.51.72a4.78,4.78,0,0,1,.32,1.9v9.17h2.36V8.12a7.15,7.15,0,0,0-.21-2A1.41,1.41,0,0,0,72.78,5.21ZM73.55,2a1.34,1.34,0,1,0-1.33,1.33A1.34,1.34,0,0,0,73.55,2Zm9.67,14.37a3.59,3.59,0,0,1-1.13.15,1.6,1.6,0,0,1-1.37-.59,2.8,2.8,0,0,1-.46-1.76V6H83.4V5H80.26V1.05H79.21L77.9,2.62V5H76.07V6H77.9v8.13a3.37,3.37,0,0,0,.88,2.59,3.2,3.2,0,0,0,2.26.81,4.82,4.82,0,0,0,2.13-.37,7.27,7.27,0,0,0,1.15-.68L84.06,16A6.45,6.45,0,0,1,83.22,16.35ZM106.81,12a8.21,8.21,0,0,0-2.54-1.49l-1.57-.66a4.59,4.59,0,0,1-1.55-1,1.76,1.76,0,0,1-.55-1.24,1.61,1.61,0,0,1,.67-1.31,3.12,3.12,0,0,1,2-.53,3.69,3.69,0,0,1,2.45.74,3.18,3.18,0,0,1,1.09,2h.52a12.09,12.09,0,0,0-.08-1.62,1.89,1.89,0,0,0-.57-1.13A3.29,3.29,0,0,0,105.16,5a9.4,9.4,0,0,0-2.46-.27,5.22,5.22,0,0,0-3.09.87,2.92,2.92,0,0,0-1.23,2.53,2.85,2.85,0,0,0,.82,2.11,6.83,6.83,0,0,0,2.32,1.43l1.57.65a6.1,6.1,0,0,1,1.77,1,1.72,1.72,0,0,1,.59,1.32,1.59,1.59,0,0,1-.69,1.31,3.68,3.68,0,0,1-2.19.52,3.94,3.94,0,0,1-2.57-.73,3.19,3.19,0,0,1-1.1-2h-.52a14.44,14.44,0,0,0,.07,1.63A1.94,1.94,0,0,0,99,16.5a3.32,3.32,0,0,0,1.49.78,10.11,10.11,0,0,0,2.57.27,5.75,5.75,0,0,0,3.28-.88,2.85,2.85,0,0,0,1.31-2.52A2.84,2.84,0,0,0,106.81,12Zm-12.6,2.95a4.32,4.32,0,0,1-.73.68,3.88,3.88,0,0,1-.88.51,2.53,2.53,0,0,1-1,.19A3,3,0,0,1,90.24,16a2.55,2.55,0,0,1-1.08-1.1,4.32,4.32,0,0,1-.41-2.07V8.1a7.07,7.07,0,0,0-.21-2,1.39,1.39,0,0,0-.72-.91A3.59,3.59,0,0,0,86.4,5H84.32V5.5h.26c.78,0,1.28.24,1.5.71A4.76,4.76,0,0,1,86.4,8.1v4.69a5.4,5.4,0,0,0,.65,2.89,3.47,3.47,0,0,0,1.67,1.4,5.85,5.85,0,0,0,2.11.39,4.71,4.71,0,0,0,2-.4,4.8,4.8,0,0,0,1.35-.9h.13l.91,1h1.31V5H94.21Z"/></g></g></svg>