<svg xmlns="http://www.w3.org/2000/svg" viewBox="0 0 205.87 69.2"><defs><style>.cls-1{fill:#011627;}</style></defs><g id="Layer_2" data-name="Layer 2"><g id="Layer_1-2" data-name="Layer 1"><path class="cls-1" d="M46.6,0V7.18H77.93V27.9c-4.66,3.77-10.22,7.63-17.62,6.74-7-.85-9-3.78-14.44-6.05-6.78-2.84-18.48-8.53-37.31,2.47V7.18H39.88V0H0V69.2H39.88V62H8.56V41.29c10-5.94,17.62-7.16,22.89-6.47,12.72,1.66,18,11.21,29.87,11,6.78-.13,12.46-3.35,16.61-6.63V62H46.6V69.2H86.49V0Z"/><path class="cls-1" d="M137.67,27a2.67,2.67,0,0,0-.91-2,10.06,10.06,0,0,0-2.73-1.6l-2.43-1A10.66,10.66,0,0,1,128,20.12a4.42,4.42,0,0,1-1.27-3.26,4.51,4.51,0,0,1,1.9-3.91,8.06,8.06,0,0,1,4.78-1.35,14.43,14.43,0,0,1,3.81.42,5,5,0,0,1,2.26,1.2,3,3,0,0,1,.9,1.74,21.21,21.21,0,0,1,.12,2.51h-.81A5,5,0,0,0,138,14.35a5.73,5.73,0,0,0-3.79-1.13,4.83,4.83,0,0,0-3,.81,2.46,2.46,0,0,0-1,2A2.7,2.7,0,0,0,131,18a7.17,7.17,0,0,0,2.39,1.51l2.43,1a12.64,12.64,0,0,1,3.93,2.31,4.37,4.37,0,0,1,1.33,3.36,4.43,4.43,0,0,1-2,3.91A8.94,8.94,0,0,1,134,31.44a15.44,15.44,0,0,1-4-.42,5.12,5.12,0,0,1-2.31-1.2,2.93,2.93,0,0,1-.89-1.74,21.21,21.21,0,0,1-.12-2.51h.81a4.88,4.88,0,0,0,1.7,3.12,6.06,6.06,0,0,0,4,1.13A5.64,5.64,0,0,0,136.6,29,2.45,2.45,0,0,0,137.67,27Zm17.06,2.59a5.43,5.43,0,0,1-1.75.24,2.51,2.51,0,0,1-2.12-.91,4.36,4.36,0,0,1-.71-2.73V13.62H155V12h-4.86V5.93h-1.62l-2,2.43V12h-2.83v1.62h2.83V26.18a5.23,5.23,0,0,0,1.36,4,4.92,4.92,0,0,0,3.5,1.25,7.65,7.65,0,0,0,3.28-.56,11.9,11.9,0,0,0,1.79-1.06L156,29A8.84,8.84,0,0,1,154.73,29.58ZM119.57,4.71H101.5v.81h.81c1.22,0,2,.37,2.33,1.11a7.18,7.18,0,0,1,.51,2.94V31.44h14a3.3,3.3,0,0,0,2-.54l.28-.24a3,3,0,0,0,.83-2.14V25.44l-.81,0s-.09,2.72-1.16,3.39a8,8,0,0,1-4.35,1h-7.09V18.48h10.94V16.86H108.79V6.33h7.54a5.64,5.64,0,0,1,3.74,1.11A4.41,4.41,0,0,1,121.39,11h.81V7.34A2.63,2.63,0,0,0,119.57,4.71Z"/><path class="cls-1" d="M122.2,40.44v3.64h-.81a4.38,4.38,0,0,0-1.32-3.54,5.59,5.59,0,0,0-3.74-1.12h-7.54V50h10.94v1.62H108.79V62.92h7.09a8,8,0,0,0,4.35-1c1.07-.67,1.16-3.39,1.16-3.39l.81,0v3.08a3,3,0,0,1-.83,2.14,2.09,2.09,0,0,1-.28.24,3.31,3.31,0,0,1-2,.55h-14V42.66a7.1,7.1,0,0,0-.51-2.93c-.34-.75-1.11-1.12-2.33-1.12h-.81V37.8h18.07A2.64,2.64,0,0,1,122.2,40.44Zm19.12,6.09a5.7,5.7,0,0,0-2.21-1.11,9.76,9.76,0,0,0-2.53-.33,7.33,7.33,0,0,0-3.16.63,7.65,7.65,0,0,0-2.11,1.4V42.66a11.42,11.42,0,0,0-.32-3.08,2.13,2.13,0,0,0-1.12-1.41,5.23,5.23,0,0,0-2.2-.37H124v.81h.81c1.22,0,2,.37,2.33,1.12a7.1,7.1,0,0,1,.51,2.93V64.54h3.64V49.06a9.21,9.21,0,0,1,1.81-1.5,4.11,4.11,0,0,1,2.24-.64,4.58,4.58,0,0,1,2.15.52,4.06,4.06,0,0,1,1.66,1.72,6.81,6.81,0,0,1,.65,3.22V64.54h3.64V52.38a9.7,9.7,0,0,0-.58-3.62A5.44,5.44,0,0,0,141.32,46.53Zm10.59-.67a5.46,5.46,0,0,0-2.21-.36h-3.64v.81h.81c1.21,0,2,.37,2.33,1.11a7.34,7.34,0,0,1,.5,2.94V64.54h3.65V50.36a10.91,10.91,0,0,0-.33-3.08A2.14,2.14,0,0,0,151.91,45.86Zm1.19-5A2.07,2.07,0,1,0,151,42.93,2.07,2.07,0,0,0,153.1,40.86Zm15,22.22a5.37,5.37,0,0,1-1.74.24,2.52,2.52,0,0,1-2.13-.91,4.43,4.43,0,0,1-.71-2.73V47.12h4.86V45.5h-4.86V39.42h-1.62l-2,2.43V45.5H157v1.62h2.84V59.68a5.26,5.26,0,0,0,1.35,4,5,5,0,0,0,3.51,1.25,7.51,7.51,0,0,0,3.28-.57,11,11,0,0,0,1.78-1.05l-.4-.81A9,9,0,0,1,168.05,63.08Zm36.48-6.77A13,13,0,0,0,200.6,54l-2.43-1a7.18,7.18,0,0,1-2.39-1.52,2.68,2.68,0,0,1-.85-1.92,2.51,2.51,0,0,1,1-2,4.83,4.83,0,0,1,3-.81,5.74,5.74,0,0,1,3.79,1.14A5,5,0,0,1,204.45,51h.81a21.1,21.1,0,0,0-.12-2.51,3,3,0,0,0-.89-1.75A5.17,5.17,0,0,0,202,45.52a14.39,14.39,0,0,0-3.81-.43,8.06,8.06,0,0,0-4.78,1.36,4.51,4.51,0,0,0-1.9,3.91,4.42,4.42,0,0,0,1.27,3.26,10.66,10.66,0,0,0,3.59,2.21l2.43,1a9.66,9.66,0,0,1,2.73,1.6,2.65,2.65,0,0,1,.91,2.05,2.42,2.42,0,0,1-1.07,2,5.64,5.64,0,0,1-3.38.81,6.14,6.14,0,0,1-4-1.13,4.88,4.88,0,0,1-1.7-3.12h-.81a21.33,21.33,0,0,0,.12,2.51,2.93,2.93,0,0,0,.89,1.74,5.22,5.22,0,0,0,2.31,1.2,15.5,15.5,0,0,0,4,.42,8.86,8.86,0,0,0,5.06-1.36,4.82,4.82,0,0,0,.69-7.27Zm-19.48,4.57a7.08,7.08,0,0,1-1.13,1,5.87,5.87,0,0,1-1.37.79A3.94,3.94,0,0,1,181,63a4.6,4.6,0,0,1-2.11-.52,4,4,0,0,1-1.67-1.71,6.73,6.73,0,0,1-.64-3.2V50.33a10.8,10.8,0,0,0-.33-3.06,2.11,2.11,0,0,0-1.1-1.41,5.44,5.44,0,0,0-2.2-.36h-3.22v.8h.41q1.8,0,2.31,1.11a7.23,7.23,0,0,1,.5,2.92v7.25A8.25,8.25,0,0,0,174,62a5.26,5.26,0,0,0,2.58,2.18,9,9,0,0,0,3.26.6,7.33,7.33,0,0,0,5.23-2h.2l1.41,1.61h2V45.5h-3.62Z"/></g></g></svg>