<svg xmlns="http://www.w3.org/2000/svg" width="62.47" height="56.99" viewBox="0 0 62.47 56.99"><defs><style>.cls-1{fill:none;stroke:#000;stroke-linecap:round;stroke-miterlimit:10;stroke-width:2px;}</style></defs><g id="Layer_2" data-name="Layer 2"><g id="Layer_1-2" data-name="Layer 1"><g id="brush"><rect class="cls-1" x="1" y="1" width="55.86" height="17.95" rx="3.9"/><path class="cls-1" d="M57.23,10H59a2.43,2.43,0,0,1,2.43,2.44V22.7A2.43,2.43,0,0,1,59,25.13H29.79a2.43,2.43,0,0,0-2.43,2.44v3.9"/><path class="cls-1" d="M28.23,31.92h0a1,1,0,0,0-1.72,0h0a9.88,9.88,0,0,0-1.91,5.92V56h5.54V37.84A9.94,9.94,0,0,0,28.23,31.92Z"/></g></g></g></svg>