<svg xmlns="http://www.w3.org/2000/svg" viewBox="0 0 135.67 19"><defs><style>.cls-1{fill:#071827;}</style></defs><g id="Layer_2" data-name="Layer 2"><g id="Layer_1-2" data-name="Layer 1"><path class="cls-1" d="M2.22,2.8,0,5l5,5,8-8h0C9.81-1.14,5.41-.38,2.22,2.8Z"/><path class="cls-1" d="M11.11,16l9.5-9.49,2.86-2.87a10.38,10.38,0,0,1,14.69,0h0L28,13.84l-2.1,2.1A10.45,10.45,0,0,1,11.11,16Z"/><rect class="cls-1" x="6.47" y="5.57" width="11.3" height="6.76" transform="translate(-2.78 11.19) rotate(-45)"/><path class="cls-1" d="M47.61,15.36V7.08A2.66,2.66,0,0,0,47.41,6c-.13-.29-.42-.43-.88-.43h-.26V5.19h6.62a1.64,1.64,0,0,1,.82.17,1,1,0,0,1,.38.47,1.71,1.71,0,0,1,.11.59v1.2h-.36a1.71,1.71,0,0,0-.5-1.37,2.08,2.08,0,0,0-1.42-.43H49.16v4h4.12v.64H49.16v4.29h2.68a2.94,2.94,0,0,0,1.6-.38,2.63,2.63,0,0,0,1-1.33l.34.1-.51,1.4a1.34,1.34,0,0,1-.42.61,1.14,1.14,0,0,1-.78.24Z"/><path class="cls-1" d="M58.68,15.51a5.79,5.79,0,0,1-1.52-.16,2.12,2.12,0,0,1-.9-.46,1.17,1.17,0,0,1-.32-.69,9,9,0,0,1,0-1h.37a2.06,2.06,0,0,0,.63,1.21,2.13,2.13,0,0,0,1.48.46,2,2,0,0,0,1.27-.31,1,1,0,0,0,0-1.53,3.84,3.84,0,0,0-1-.58l-.9-.39a4.16,4.16,0,0,1-1.38-.84,1.7,1.7,0,0,1-.5-1.25,1.68,1.68,0,0,1,.76-1.5A3.22,3.22,0,0,1,58.51,8,5.57,5.57,0,0,1,60,8.12a2,2,0,0,1,.88.46,1.14,1.14,0,0,1,.34.69,9.33,9.33,0,0,1,0,1h-.37a2,2,0,0,0-.63-1.21,2,2,0,0,0-1.43-.46,1.75,1.75,0,0,0-1.11.31,1,1,0,0,0-.37.77,1,1,0,0,0,.32.71,2.77,2.77,0,0,0,.87.55l.92.39a5.05,5.05,0,0,1,1.53.89,1.65,1.65,0,0,1,.52,1.28,1.67,1.67,0,0,1-.8,1.5A3.61,3.61,0,0,1,58.68,15.51Z"/><path class="cls-1" d="M65.43,15.51a1.82,1.82,0,0,1-2-2.06V8.75h-1V8.11h1V6.73l.77-.93H65V8.11h1.8v.64H65v4.71a1.83,1.83,0,0,0,.25,1.08.9.9,0,0,0,.75.34,1.94,1.94,0,0,0,.68-.11,3.75,3.75,0,0,0,.49-.23l.17.34a3.4,3.4,0,0,1-.71.42A3,3,0,0,1,65.43,15.51Z"/><path class="cls-1" d="M76,15.51,72.42,7a3.94,3.94,0,0,0-.71-1.21,1.44,1.44,0,0,0-.94-.41V5.06H71l.3,0a3.53,3.53,0,0,1,.93.13,2.44,2.44,0,0,1,1,.54A3.28,3.28,0,0,1,74.1,7l2.59,6.09,3.36-7.89h.74L76.37,15.51Z"/><path class="cls-1" d="M82.39,15.36V10a2.93,2.93,0,0,0-.19-1.12c-.13-.28-.43-.42-.89-.42h-.26V8.11h1.49a1.9,1.9,0,0,1,.84.16.9.9,0,0,1,.43.56A4.44,4.44,0,0,1,83.93,10v5.35Zm.69-8.14a.82.82,0,0,1-.67-.31,1.11,1.11,0,0,1-.27-.74.69.69,0,0,1,.21-.53.75.75,0,0,1,.53-.19.83.83,0,0,1,.68.31,1.08,1.08,0,0,1,.26.72.7.7,0,0,1-.21.54A.72.72,0,0,1,83.08,7.22Z"/><path class="cls-1" d="M86.26,15.36V10a2.74,2.74,0,0,0-.2-1.12c-.12-.28-.42-.42-.88-.42h-.26V8.11h1.49a1.9,1.9,0,0,1,.84.16.86.86,0,0,1,.42.56A4,4,0,0,1,87.8,10v5.35ZM87,7.22a.84.84,0,0,1-.68-.31A1.15,1.15,0,0,1,86,6.17a.69.69,0,0,1,.21-.53.73.73,0,0,1,.53-.19.84.84,0,0,1,.68.31,1.08,1.08,0,0,1,.26.72.7.7,0,0,1-.21.54A.74.74,0,0,1,87,7.22Z"/><path class="cls-1" d="M90.12,15.36V10a2.75,2.75,0,0,0-.19-1.12c-.13-.28-.42-.42-.89-.42h-.26V8.11H90.2a2,2,0,0,1,.87.16.84.84,0,0,1,.44.45h.08a2.92,2.92,0,0,1,.79-.52A2.72,2.72,0,0,1,93.57,8a3,3,0,0,1,.82.11,1.69,1.69,0,0,1,.65.34A1.65,1.65,0,0,1,95.5,9a2.61,2.61,0,0,1,1-.75A3,3,0,0,1,97.78,8a2.57,2.57,0,0,1,1.16.25,1.78,1.78,0,0,1,.83.84,3.92,3.92,0,0,1,.3,1.7v4.61H98.52V10.75a2.92,2.92,0,0,0-.33-1.62,1,1,0,0,0-.9-.46,1.63,1.63,0,0,0-.88.28,2.19,2.19,0,0,0-.66.61,2.08,2.08,0,0,1,.1.54c0,.24,0,.45,0,.65v4.61H94.33V10.75A2.92,2.92,0,0,0,94,9.13a1,1,0,0,0-.9-.46,1.5,1.5,0,0,0-.79.22,2.5,2.5,0,0,0-.63.52v5.95Z"/><path class="cls-1" d="M102.38,15.36V10a2.75,2.75,0,0,0-.19-1.12c-.13-.28-.42-.42-.88-.42H101V8.11h1.5a1.9,1.9,0,0,1,.84.16.86.86,0,0,1,.42.56,4.44,4.44,0,0,1,.12,1.18v5.35Zm.7-8.14a.83.83,0,0,1-.68-.31,1.15,1.15,0,0,1-.26-.74.69.69,0,0,1,.21-.53.72.72,0,0,1,.53-.19.84.84,0,0,1,.68.31,1.08,1.08,0,0,1,.26.72.7.7,0,0,1-.21.54A.76.76,0,0,1,103.08,7.22Z"/><path class="cls-1" d="M108.47,15.51a5.69,5.69,0,0,1-1.52-.16,2.06,2.06,0,0,1-.9-.46,1.17,1.17,0,0,1-.32-.69,9,9,0,0,1,0-1h.37a2,2,0,0,0,.63,1.21,2.12,2.12,0,0,0,1.48.46,2,2,0,0,0,1.26-.31,1,1,0,0,0,.39-.77,1,1,0,0,0-.35-.76,3.77,3.77,0,0,0-1-.58l-.89-.39a4.16,4.16,0,0,1-1.38-.84,1.7,1.7,0,0,1-.5-1.25,1.68,1.68,0,0,1,.76-1.5A3.22,3.22,0,0,1,108.3,8a5.57,5.57,0,0,1,1.48.16,2,2,0,0,1,.88.46,1.14,1.14,0,0,1,.34.69,9.33,9.33,0,0,1,0,1h-.37A2,2,0,0,0,110,9.05a2,2,0,0,0-1.43-.46,1.75,1.75,0,0,0-1.11.31,1,1,0,0,0-.37.77,1,1,0,0,0,.32.71,2.77,2.77,0,0,0,.87.55l.92.39a5.05,5.05,0,0,1,1.53.89,1.65,1.65,0,0,1,.52,1.28,1.67,1.67,0,0,1-.8,1.5A3.63,3.63,0,0,1,108.47,15.51Z"/><path class="cls-1" d="M115.22,15.51a1.82,1.82,0,0,1-2-2.06V8.75h-1V8.11h1V6.73L114,5.8h.79V8.11h1.8v.64h-1.8v4.71a1.83,1.83,0,0,0,.25,1.08.9.9,0,0,0,.75.34,2,2,0,0,0,.68-.11,4.48,4.48,0,0,0,.49-.23l.17.34a3.69,3.69,0,0,1-.71.42A3,3,0,0,1,115.22,15.51Z"/><path class="cls-1" d="M118.3,15.36V7.08A2.66,2.66,0,0,0,118.1,6c-.12-.29-.42-.43-.88-.43h-.28V5.19h1.51a1.91,1.91,0,0,1,.84.15.88.88,0,0,1,.42.56,4,4,0,0,1,.13,1.18v8.28Z"/><path class="cls-1" d="M124.75,15.51a3.39,3.39,0,0,1-1.33-.25,2,2,0,0,1-1-.85,3.34,3.34,0,0,1-.37-1.69V10a2.75,2.75,0,0,0-.19-1.12c-.13-.28-.42-.42-.89-.42h-.15V8.11h1.4a1.9,1.9,0,0,1,.84.16.86.86,0,0,1,.42.56,4,4,0,0,1,.13,1.18v2.71a2.84,2.84,0,0,0,.22,1.24,1.53,1.53,0,0,0,.59.66,1.61,1.61,0,0,0,.77.2,1.55,1.55,0,0,0,.61-.13,2.1,2.1,0,0,0,.5-.34,2.52,2.52,0,0,0,.4-.4V8.11h1.54v7.25h-.9l-.54-.64h-.08a2.88,2.88,0,0,1-.79.54A2.65,2.65,0,0,1,124.75,15.51Z"/><path class="cls-1" d="M132.85,15.51a5.79,5.79,0,0,1-1.52-.16,2,2,0,0,1-.89-.46,1.12,1.12,0,0,1-.33-.69,9.33,9.33,0,0,1,0-1h.37a2,2,0,0,0,.63,1.21,2.12,2.12,0,0,0,1.48.46,2,2,0,0,0,1.26-.31,1,1,0,0,0,0-1.53,3.84,3.84,0,0,0-1-.58l-.9-.39a4,4,0,0,1-1.37-.84A1.67,1.67,0,0,1,130,10a1.7,1.7,0,0,1,.75-1.5A3.22,3.22,0,0,1,132.68,8a5.57,5.57,0,0,1,1.48.16,1.92,1.92,0,0,1,.88.46,1.09,1.09,0,0,1,.34.69,9,9,0,0,1,.05,1h-.37A1.89,1.89,0,0,0,133,8.59a1.75,1.75,0,0,0-1.11.31,1,1,0,0,0-.37.77,1,1,0,0,0,.32.71,2.77,2.77,0,0,0,.87.55l.92.39a5.25,5.25,0,0,1,1.54.89,1.68,1.68,0,0,1,.51,1.28,1.65,1.65,0,0,1-.8,1.5A3.59,3.59,0,0,1,132.85,15.51Z"/></g></g></svg>