<svg xmlns="http://www.w3.org/2000/svg" viewBox="0 0 1005.53 680.13"><defs><style>.cls-1{fill:none;stroke:#fff;stroke-miterlimit:10;stroke-width:2px;}</style></defs><g id="Layer_2" data-name="Layer 2"><g id="Layer_1-2" data-name="Layer 1"><polyline class="cls-1" points="476.16 679.31 537.82 635.97 598.5 591.27 659.26 546.73 720.61 502.96 782.18 459.49 840.76 412 903.17 369.67"/><polyline class="cls-1" points="844.49 359.36 771.25 385.86 701.03 419.6 623.87 455.19 542.99 482.53 482 510.53 420.98 538.22 324.23 565.09 244.85 584.92 166.03 606.83 88.32 632.67 0.38 668.31"/><polyline class="cls-1" points="645.79 162.96 645.4 235.58 734.1 231.37 733.46 171.07 734.27 110.84 646.22 134.12 645.66 162.63 583.88 175.84 522.54 189.18 521.94 245.14 521.21 301.44 506.04 298.35"/><polyline class="cls-1" points="734.72 109.5 746.61 113.01 764.41 120.09 774.91 123.95 775.06 179.78 774.61 235.26 734.51 231.82"/><polygon class="cls-1" points="645.75 124.35 737.39 99.63 737.15 50.32 645.89 82.97 645.75 124.35"/><polyline class="cls-1" points="737.15 49.72 774.8 72.22 774.99 113.14 737.17 99.27"/><polyline class="cls-1" points="645.56 173.71 591.53 183.99 537.78 196.3 536.38 304.98 591.9 313.39 645.16 321.2 645.46 245.18 734.54 244.72 784.11 248.23 856.36 243.83 928.91 240.47 926.93 157.66 929.76 73.81 856.77 94.5 784.46 112.08"/><polygon class="cls-1" points="784.51 124.46 783.96 180.37 783.74 237.08 848.09 232.55 911.7 229.03 912.41 161.01 911.95 92.83 848.01 107.95 784.51 124.46"/><polyline class="cls-1" points="927.63 237.4 995.55 254.49 995.16 199.72 996.08 143.8 928.17 61.62 856.71 80.51 783.78 99.36 782.94 63.72 783.42 36.87 737.14 1.15 646.8 39.14 645.78 70.81 737.14 35.81 783.41 62.86"/><line class="cls-1" x1="928.26" y1="75.53" x2="995.65" y2="149.67"/><polyline class="cls-1" points="928.78 251.59 929.1 312.49 928.59 373.35 855.73 361.49 782.72 349.73 782.94 258.78 829.45 260.77 829.55 333.67 782.9 326.86"/><polygon class="cls-1" points="554.43 207.39 554.12 286.42 624.4 295.64 624.35 196.01 554.43 207.39"/><polygon class="cls-1" points="656.2 261.23 656.23 301.5 719.91 309.34 719.95 260.39 656.2 261.23"/><polyline class="cls-1" points="645.08 321.14 644.53 350.71 733.32 363.68 733.71 303.44 733.1 243.28"/><line class="cls-1" x1="782.8" y1="349.57" x2="733.52" y2="364.29"/><polyline class="cls-1" points="854.35 361.31 854.52 275 893.49 276.71 892.77 367.75"/><polyline class="cls-1" points="928.76 373.58 992.59 328.49 1004.38 320.17 1004.53 265.46"/><polyline class="cls-1" points="993.05 328.65 991.5 265.53 937.45 252.9 937.87 310.11 938.16 367.13"/></g></g></svg>