<svg xmlns="http://www.w3.org/2000/svg" viewBox="0 0 585.04 540.05"><defs><style>.cls-1{fill:none;stroke:#fff;stroke-miterlimit:10;stroke-width:2px;}</style></defs><g id="Layer_2" data-name="Layer 2"><g id="Layer_1-2" data-name="Layer 1"><polyline class="cls-1" points="235.84 539.22 297.63 496.94 360.62 456.44 421.18 412.41 481.63 368.23"/><path class="cls-1" d="M0,665.12" transform="translate(-422.19)"/><polyline class="cls-1" points="417.27 357.46 348.16 386.85 280.02 418.36 201.68 451.28 124.27 486.35 62.53 512.82 0.37 537.87"/><polyline class="cls-1" points="225.3 162.96 224.91 235.58 313.61 231.37 312.98 171.07 313.78 110.84 225.73 134.12 225.17 162.63 163.39 175.84 102.05 189.18 101.45 245.14 100.72 301.44 85.55 298.35"/><polyline class="cls-1" points="314.23 109.5 326.12 113.01 343.92 120.09 354.42 123.95 354.57 179.78 354.12 235.26 314.02 231.82"/><polygon class="cls-1" points="225.26 124.35 316.9 99.63 316.66 50.32 225.4 82.97 225.26 124.35"/><polyline class="cls-1" points="316.66 49.72 354.31 72.22 354.5 113.14 316.68 99.27"/><polyline class="cls-1" points="225.07 173.71 171.04 183.99 117.29 196.3 115.9 304.98 171.41 313.39 224.67 321.2 224.97 245.18 314.05 244.72 363.62 248.23 435.87 243.83 508.42 240.47 506.44 157.66 509.27 73.81 436.28 94.5 363.97 112.08"/><polygon class="cls-1" points="364.02 124.46 363.48 180.37 363.25 237.08 427.6 232.55 491.21 229.03 491.93 161.01 491.46 92.83 427.52 107.95 364.02 124.46"/><polyline class="cls-1" points="507.14 237.4 575.06 254.49 574.67 199.72 575.59 143.8 507.68 61.62 436.22 80.51 363.29 99.36 362.45 63.72 362.93 36.87 316.65 1.15 226.32 39.14 225.3 70.81 316.65 35.81 362.92 62.86"/><line class="cls-1" x1="507.77" y1="75.53" x2="575.16" y2="149.67"/><polyline class="cls-1" points="508.29 251.59 508.62 312.49 508.11 373.35 435.24 361.49 362.23 349.73 362.45 258.78 408.96 260.77 409.06 333.67 362.41 326.86"/><polygon class="cls-1" points="133.94 207.39 133.63 286.42 203.91 295.64 203.86 196.01 133.94 207.39"/><polygon class="cls-1" points="235.72 261.23 235.75 301.5 299.42 309.34 299.46 260.39 235.72 261.23"/><polyline class="cls-1" points="224.59 321.14 224.04 350.71 312.83 363.68 313.22 303.44 312.62 243.28"/><line class="cls-1" x1="362.31" y1="349.57" x2="313.03" y2="364.29"/><polyline class="cls-1" points="433.86 361.31 434.03 275 473 276.71 472.28 367.75"/><polyline class="cls-1" points="508.27 373.58 572.11 328.49 583.89 320.17 584.04 265.46"/><polyline class="cls-1" points="572.56 328.65 571.01 265.53 516.96 252.9 517.38 310.11 517.67 367.13"/></g></g></svg>