<?xml version="1.0" encoding="utf-8"?>
<!-- Generator: Adobe Illustrator 24.1.2, SVG Export Plug-In . SVG Version: 6.00 Build 0)  -->
<svg version="1.1" id="right-circle" xmlns="http://www.w3.org/2000/svg" xmlns:xlink="http://www.w3.org/1999/xlink" x="0px"
	 y="0px" viewBox="0 0 800 800" style="enable-background:new 0 0 800 800;" xml:space="preserve">
<style type="text/css">
	.st0{fill:#FFFFFF;}
</style>
<g id="SVGRepo_iconCarrier">
	<path class="st0" d="M66.7,400c0,184.1,149.2,333.3,333.3,333.3S733.3,584.1,733.3,400S584.1,66.7,400,66.7S66.7,215.9,66.7,400z
		 M309.5,423.5c-13-13.1-12.9-34.2,0.2-47.1l100-100c13.1-13.1,34.3-13.1,47.3,0c13.1,13.1,13.1,34.3,0,47.3L380.3,400l76.7,76.3
		c0.1,0.1,0.1,0.1,0.2,0.2c13,13.1,12.9,34.2-0.2,47.1c-0.1,0.1-0.1,0.1-0.2,0.2c-13.1,13-34.2,12.9-47.1-0.2l-100-100
		C309.6,423.6,309.5,423.5,309.5,423.5z"/>
</g>
</svg>
