<svg xmlns="http://www.w3.org/2000/svg" viewBox="0 0 147.83 23.18"><defs><style>.cls-1{fill:#011627;}</style></defs><g id="Layer_2" data-name="Layer 2"><g id="Layer_1-2" data-name="Layer 1"><path class="cls-1" d="M15.61,0V2.41H26.1V9.35c-1.56,1.26-3.42,2.55-5.9,2.25s-3-1.26-4.84-2c-2.27-1-6.18-2.86-12.49.82v-8H13.36V0H0V23.18H13.36V20.77H2.87V13.83c3.33-2,5.9-2.4,7.67-2.17,4.25.56,6,3.76,10,3.69a9.34,9.34,0,0,0,5.56-2.22v7.64H15.61v2.41H29V0Z"/><path class="cls-1" d="M63.55,17.55A1.73,1.73,0,0,0,63,16.23a6.11,6.11,0,0,0-1.77-1l-1.57-.66a6.93,6.93,0,0,1-2.32-1.43A2.85,2.85,0,0,1,56.48,11a2.9,2.9,0,0,1,1.23-2.52A5.15,5.15,0,0,1,60.8,7.6a9.3,9.3,0,0,1,2.46.27,3.39,3.39,0,0,1,1.47.78,1.94,1.94,0,0,1,.58,1.12,14.44,14.44,0,0,1,.07,1.63h-.52a3.18,3.18,0,0,0-1.09-2,3.69,3.69,0,0,0-2.45-.73,3.12,3.12,0,0,0-2,.52,1.63,1.63,0,0,0-.67,1.31,1.76,1.76,0,0,0,.55,1.24,4.71,4.71,0,0,0,1.55,1l1.57.65a8.29,8.29,0,0,1,2.54,1.49A2.85,2.85,0,0,1,65.78,17a2.88,2.88,0,0,1-1.31,2.53,5.83,5.83,0,0,1-3.28.87,10,10,0,0,1-2.56-.27,3.3,3.3,0,0,1-1.5-.77,1.89,1.89,0,0,1-.57-1.13,12.09,12.09,0,0,1-.08-1.62H57a3.19,3.19,0,0,0,1.1,2,4,4,0,0,0,2.57.74,3.66,3.66,0,0,0,2.19-.53A1.58,1.58,0,0,0,63.55,17.55Zm11,1.68a3.57,3.57,0,0,1-1.13.16,1.63,1.63,0,0,1-1.37-.59A2.83,2.83,0,0,1,71.62,17V8.91h3.14v-1H71.62V3.93H70.57L69.26,5.5V7.86H67.43v1h1.83V17a3.35,3.35,0,0,0,.88,2.59,3.2,3.2,0,0,0,2.27.81,5,5,0,0,0,2.12-.36,8.12,8.12,0,0,0,1.15-.68l-.26-.53A5.33,5.33,0,0,1,74.58,19.23ZM51.84,3.15H40.16v.52h.52c.79,0,1.29.24,1.51.72a4.6,4.6,0,0,1,.33,1.9V20.43h9a2.06,2.06,0,0,0,1.27-.35l.19-.16a1.87,1.87,0,0,0,.53-1.38v-2H53s-.06,1.76-.75,2.19a5.17,5.17,0,0,1-2.81.66H44.87V12.05H52V11H44.87V4.19h4.88a3.66,3.66,0,0,1,2.42.72A2.85,2.85,0,0,1,53,7.21h.52V4.85A1.7,1.7,0,0,0,51.84,3.15Z"/><path class="cls-1" d="M93.72,4.72V7.07H93.2a2.84,2.84,0,0,0-.85-2.29,3.66,3.66,0,0,0-2.42-.72H85.05v6.81h7.08v1.05H85.05v7.34h4.59a5.17,5.17,0,0,0,2.81-.66c.69-.44.75-2.19.75-2.19h.52v2a1.88,1.88,0,0,1-.53,1.38L93,20a2.06,2.06,0,0,1-1.27.35h-9V6.16a4.6,4.6,0,0,0-.33-1.9c-.22-.48-.72-.72-1.51-.72h-.52V3H92A1.71,1.71,0,0,1,93.72,4.72Zm12.37,3.94a3.79,3.79,0,0,0-1.43-.72A6.41,6.41,0,0,0,103,7.73a4.79,4.79,0,0,0-2,.41,4.72,4.72,0,0,0-1.36.9V6.16a7.15,7.15,0,0,0-.21-2,1.39,1.39,0,0,0-.72-.92A3.45,3.45,0,0,0,97.26,3H94.9v.53h.53q1.17,0,1.5.72a4.6,4.6,0,0,1,.33,1.9V20.3h2.36v-10a5.48,5.48,0,0,1,1.16-1,2.7,2.7,0,0,1,1.46-.42,3,3,0,0,1,1.39.34,2.67,2.67,0,0,1,1.07,1.11,4.4,4.4,0,0,1,.42,2.09V20.3h2.36V12.45a6.31,6.31,0,0,0-.38-2.35A3.58,3.58,0,0,0,106.09,8.66Zm6.85-.43A3.45,3.45,0,0,0,111.51,8h-2.36v.53h.53c.78,0,1.29.24,1.5.72a4.6,4.6,0,0,1,.33,1.9V20.3h2.36V11.14a7.23,7.23,0,0,0-.21-2A1.37,1.37,0,0,0,112.94,8.23ZM113.71,5a1.34,1.34,0,1,0-1.33,1.34A1.33,1.33,0,0,0,113.71,5Zm9.67,14.37a3.34,3.34,0,0,1-1.13.16,1.63,1.63,0,0,1-1.37-.59,2.82,2.82,0,0,1-.46-1.77V9h3.14V8h-3.14V4.06h-1l-1.31,1.57V8h-1.83V9h1.83v8.12a3.35,3.35,0,0,0,.88,2.59,3.16,3.16,0,0,0,2.26.82,4.88,4.88,0,0,0,2.12-.37,8.31,8.31,0,0,0,1.16-.68l-.26-.53A6.3,6.3,0,0,1,123.38,19.36ZM147,15a8.21,8.21,0,0,0-2.54-1.5l-1.57-.65a4.75,4.75,0,0,1-1.55-1,1.74,1.74,0,0,1-.55-1.25,1.6,1.6,0,0,1,.67-1.31,3.09,3.09,0,0,1,1.95-.52,3.71,3.71,0,0,1,2.45.73,3.22,3.22,0,0,1,1.09,2h.52a14.1,14.1,0,0,0-.08-1.63,1.87,1.87,0,0,0-.57-1.12A3.34,3.34,0,0,0,145.32,8a9,9,0,0,0-2.46-.28,5.15,5.15,0,0,0-3.09.88,2.89,2.89,0,0,0-1.24,2.53,2.85,2.85,0,0,0,.83,2.1,6.83,6.83,0,0,0,2.32,1.43l1.57.66a6.11,6.11,0,0,1,1.77,1,1.73,1.73,0,0,1,.59,1.32,1.55,1.55,0,0,1-.7,1.31,3.62,3.62,0,0,1-2.18.53,3.94,3.94,0,0,1-2.57-.74,3.16,3.16,0,0,1-1.1-2h-.53a14,14,0,0,0,.08,1.62,2,2,0,0,0,.58,1.13,3.31,3.31,0,0,0,1.49.77,10.05,10.05,0,0,0,2.57.28,5.77,5.77,0,0,0,3.27-.88,2.85,2.85,0,0,0,1.31-2.53A2.81,2.81,0,0,0,147,15Zm-12.6,3a4.27,4.27,0,0,1-.73.67,4.11,4.11,0,0,1-.88.51,2.61,2.61,0,0,1-1,.2A3,3,0,0,1,130.4,19a2.63,2.63,0,0,1-1.08-1.11,4.32,4.32,0,0,1-.42-2.07V11.12a7.55,7.55,0,0,0-.2-2,1.37,1.37,0,0,0-.72-.91A3.4,3.4,0,0,0,126.56,8h-2.08v.52h.26q1.17,0,1.5.72a4.73,4.73,0,0,1,.32,1.89V15.8a5.38,5.38,0,0,0,.65,2.89,3.43,3.43,0,0,0,1.67,1.41,5.81,5.81,0,0,0,2.11.39,4.74,4.74,0,0,0,2-.41,4.58,4.58,0,0,0,1.35-.89h.13l.91,1h1.3V8h-2.34Z"/></g></g></svg>