<svg xmlns="http://www.w3.org/2000/svg" viewBox="0 0 57.26 59.69"><defs><style>.cls-1{fill:none;stroke:#000;stroke-linecap:round;stroke-linejoin:round;stroke-width:2px;}</style></defs><g id="Layer_2" data-name="Layer 2"><g id="Layer_1-2" data-name="Layer 1"><g id="sauna"><polygon class="cls-1" points="56.26 26.93 50.88 58.69 28.63 58.69 6.38 58.69 1 26.93 56.26 26.93"/><path class="cls-1" d="M20.79,26.93a12.07,12.07,0,0,0,2.06-7.57c-.37-3.74-2.56-7.18-2.44-10.14C20.55,5.8,23.74,1,28.63,1s8.07,4.8,8.22,8.22c.12,3-2.07,6.4-2.44,10.14a12,12,0,0,0,2.06,7.57"/><line class="cls-1" x1="28.63" y1="26.93" x2="28.63" y2="58.69"/><line class="cls-1" x1="42.86" y1="26.93" x2="39.98" y2="58.69"/><line class="cls-1" x1="14.4" y1="26.93" x2="17.28" y2="58.69"/></g></g></g></svg>