<svg xmlns="http://www.w3.org/2000/svg" width="188.53" height="155.87" viewBox="0 0 188.53 155.87"><defs><style>.cls-1{fill:none;stroke:#000;stroke-linecap:round;stroke-linejoin:round;stroke-width:2px;}</style></defs><g id="Layer_2" data-name="Layer 2"><g id="Layer_1-2" data-name="Layer 1"><g id="terrace"><rect class="cls-1" x="2.81" y="140.72" width="184.72" height="14.15"/><rect class="cls-1" x="38.38" y="128.66" width="149.15" height="12.07"/><rect class="cls-1" x="31.72" y="119.27" width="155.81" height="9.38"/><rect class="cls-1" x="66.46" y="107.21" width="121.07" height="12.07"/><rect class="cls-1" x="61.05" y="97.83" width="126.48" height="9.38"/><rect class="cls-1" x="95.53" y="85.76" width="92" height="12.07"/><rect class="cls-1" x="91.42" y="76.38" width="96.11" height="9.38"/><circle class="cls-1" cx="34.76" cy="34.76" r="21.94"/><line class="cls-1" x1="34.76" y1="56.69" x2="34.76" y2="68.51"/><line class="cls-1" x1="56.69" y1="34.76" x2="68.51" y2="34.76"/><line class="cls-1" x1="50.49" y1="19.18" x2="58.84" y2="10.82"/><line class="cls-1" x1="9.95" y1="58.69" x2="18.3" y2="50.33"/><line class="cls-1" x1="1" y1="34.76" x2="12.82" y2="34.76"/><line class="cls-1" x1="9.95" y1="10.36" x2="18.3" y2="18.72"/><line class="cls-1" x1="50.49" y1="50.33" x2="58.84" y2="58.69"/><line class="cls-1" x1="34.76" y1="1" x2="34.76" y2="12.82"/></g></g></g></svg>